# xmcd
#
# Track frame offsets: 
#        183
#        11998
#        29840
#        48468
#        63895
#        89258
#        116105
#        127505
#        152190
#        175128
#        195155
#        230920
#
# Disc length: 3421 seconds
#
# Revision: 4
# Processed by: cddbd v1.5.2PL0 Copyright (c) Steve Scherf et al.
# Submitted via: ExactAudioCopy v0.99pb4
#
DISCID=9d0d5b0c
DTITLE=Dave Hole - The Plumber
DYEAR=1993
DGENRE=Blues
TTITLE0=The Plumber
TTITLE1=You Don't Have To Be Pretty To Sing The Blues
TTITLE2=Do What You Do
TTITLE3=Is It True? (Part 1)
TTITLE4=Three Days Out
TTITLE5=Sign Me Up
TTITLE6=Me And My Guitar
TTITLE7=New Way To Live
TTITLE8=Is It True? (Part 2)
TTITLE9=Wrecking Yard
TTITLE10=North West Blues
TTITLE11=Boogaloo
EXTD=Label: Provogue Music\nPRD 70462 | Germany: 329 70462
EXTT0=
EXTT1=
EXTT2=
EXTT3=
EXTT4=
EXTT5=
EXTT6=
EXTT7=
EXTT8=
EXTT9=
EXTT10=
EXTT11=
PLAYORDER=
